<svg version="1.1" xmlns="http://www.w3.org/2000/svg" viewBox="0 0 413.75 337.36109924316406" width="413.75" height="337.36109924316406" class="excalidraw-svg">
  <!-- svg-source:excalidraw -->
  
  <defs>
    <style class="style-fonts">
      
    </style>
    
  </defs>
  <g stroke-linecap="round" transform="translate(10 10) rotate(0 94.09722900390625 75.6944351196289)"><path d="M32 0 C78.38 0.43, 122.76 -1.59, 156.19 0 M32 0 C78.5 0.54, 124.2 1.56, 156.19 0 M156.19 0 C177 -1.98, 188.19 12.05, 188.19 32 M156.19 0 C178.81 1.92, 189.7 8.8, 188.19 32 M188.19 32 C189.66 58.48, 190.31 82.77, 188.19 119.39 M188.19 32 C188.31 53.97, 188.02 74.5, 188.19 119.39 M188.19 119.39 C187.23 141.32, 177.59 150, 156.19 151.39 M188.19 119.39 C186.37 140.08, 179.38 151.02, 156.19 151.39 M156.19 151.39 C118.07 151.63, 76.78 152.23, 32 151.39 M156.19 151.39 C114.24 150.42, 72.69 151.67, 32 151.39 M32 151.39 C10.72 149.65, 0.58 139.07, 0 119.39 M32 151.39 C11.9 153.61, 0.23 142.62, 0 119.39 M0 119.39 C0.66 92.33, -1.44 67.1, 0 32 M0 119.39 C1.22 89.82, 1.03 59.56, 0 32 M0 32 C-1.88 9.2, 12.51 -1.7, 32 0 M0 32 C-1.36 9.92, 9.38 -0.82, 32 0" stroke="#1e1e1e" stroke-width="2" fill="none"></path></g><g stroke-linecap="round" transform="translate(175.97222900390625 289.16664123535156) rotate(0 60.069427490234375 19.09722900390625)"><path d="M84.44 1.92 C94.07 3.24, 104.29 6.23, 110.27 9.22 C116.25 12.21, 120.32 16.6, 120.31 19.84 C120.3 23.08, 116.05 25.93, 110.2 28.66 C104.35 31.39, 94.81 34.51, 85.21 36.22 C75.61 37.93, 63.24 39.29, 52.6 38.93 C41.96 38.56, 29.78 36.35, 21.37 34.03 C12.96 31.7, 5.31 28.44, 2.13 24.97 C-1.05 21.5, -0.6 16.63, 2.29 13.22 C5.18 9.81, 11.23 6.71, 19.46 4.52 C27.7 2.32, 39.04 0.36, 51.7 0.07 C64.36 -0.23, 86.69 1.61, 95.42 2.77 C104.15 3.94, 104.72 6.74, 104.08 7.06 M64.19 -0.4 C74.33 -0.37, 87.03 1.43, 95.97 3.6 C104.92 5.77, 114.32 9.27, 117.88 12.63 C121.44 15.99, 120.17 20.28, 117.34 23.76 C114.52 27.25, 108.18 31.17, 100.91 33.53 C93.64 35.89, 83.93 37.39, 73.74 37.94 C63.55 38.5, 50.23 38.11, 39.79 36.86 C29.36 35.6, 17.71 33.32, 11.14 30.4 C4.57 27.48, 1.2 22.86, 0.39 19.33 C-0.41 15.81, 0.96 12.3, 6.32 9.27 C11.67 6.23, 22.81 2.5, 32.5 1.1 C42.18 -0.3, 58.83 0.9, 64.43 0.88 C70.02 0.86, 65.82 1.04, 66.07 0.99" stroke="#1e1e1e" stroke-width="2" fill="none"></path></g><g stroke-linecap="round" transform="translate(319.02777099609375 144.0277557373047) rotate(0 42.361114501953125 50.34722900390625)"><path d="M53.75 12.75 C59.44 20.73, 63.72 25.81, 73.97 38.25 M53.75 12.75 C58.22 18.36, 63.72 26.38, 73.97 38.25 M73.97 38.25 C84.4 51.31, 83.03 51.83, 73.97 63.75 M73.97 38.25 C85.96 50.68, 83.55 51.37, 73.97 63.75 M73.97 63.75 C66.5 71.04, 59.91 81.65, 53.75 87.94 M73.97 63.75 C66.82 71.67, 62.48 78.56, 53.75 87.94 M53.75 87.94 C44.65 100.6, 42.32 100.7, 32.25 87.94 M53.75 87.94 C43.42 99.24, 41 99.89, 32.25 87.94 M32.25 87.94 C26.05 81.13, 18.2 73.01, 10.75 63.75 M32.25 87.94 C27.15 82.57, 23.25 77.62, 10.75 63.75 M10.75 63.75 C-0.72 52.37, 1.71 50.63, 10.75 38.25 M10.75 63.75 C0.75 50.59, -1.17 51.65, 10.75 38.25 M10.75 38.25 C18.94 28.98, 27 19.49, 32.25 12.75 M10.75 38.25 C18.49 28.8, 25.17 20.21, 32.25 12.75 M32.25 12.75 C44.02 1.39, 41.46 1.43, 53.75 12.75 M32.25 12.75 C45.04 -0.09, 43.24 2.3, 53.75 12.75" stroke="#1e1e1e" stroke-width="2" fill="none"></path></g></svg>